<svg width="55" height="76" viewBox="0 0 55 76" fill="none" xmlns="http://www.w3.org/2000/svg">
<g filter="url(#filter0_f_5341_8298)">
<ellipse cx="26.5435" cy="66.5001" rx="19.5455" ry="2.5" fill="#2AD95C"/>
<path d="M45.4268 66.4202C45.4777 66.452 45.5142 66.4787 45.5401 66.5001C45.5142 66.5214 45.4777 66.5481 45.4268 66.5799C45.2217 66.7081 44.8867 66.8499 44.4082 66.9946C43.4586 67.2818 42.0594 67.5469 40.3008 67.7719C36.7907 68.2208 31.9265 68.5001 26.5435 68.5001C21.1605 68.5001 16.2963 68.2208 12.7862 67.7719C11.0276 67.5469 9.62839 67.2818 8.67876 66.9946C8.20026 66.8499 7.86526 66.7081 7.66016 66.5799C7.60929 66.5481 7.57281 66.5214 7.54689 66.5001C7.57281 66.4787 7.60929 66.452 7.66016 66.4202C7.86526 66.292 8.20026 66.1502 8.67876 66.0055C9.62839 65.7184 11.0276 65.4532 12.7862 65.2283C16.2963 64.7793 21.1605 64.5001 26.5435 64.5001C31.9265 64.5001 36.7907 64.7793 40.3008 65.2283C42.0594 65.4532 43.4586 65.7184 44.4082 66.0055C44.8867 66.1502 45.2217 66.292 45.4268 66.4202Z" stroke="#2AD95C"/>
</g>
<path d="M28.2829 65.8984C27.6998 66.8663 26.2963 66.8663 25.7132 65.8984L18.8607 54.5241C18.2584 53.5243 18.9784 52.25 20.1456 52.25H33.8505C35.0177 52.25 35.7377 53.5243 35.1354 54.5241L28.2829 65.8984Z" fill="#2AD95C" stroke="#2AD95C"/>
<path d="M26.998 53C39.9633 53 49.998 41.5316 49.998 28C49.998 14.4684 39.9633 3 26.998 3C14.0328 3 3.99805 14.4684 3.99805 28C3.99805 41.5316 14.0328 53 26.998 53Z" fill="white" stroke="#2AD95C" stroke-width="6"/>
<path d="M46.978 33.245C47.0971 31.9055 46.3458 31.633 44.5754 32.3359C43.9903 32.558 43.1411 32.7961 42.687 32.8739C42.0303 32.9883 41.7454 33.1646 41.4039 33.6981C41.1522 34.0737 40.5899 34.7422 40.1766 35.1681C39.314 36.0496 38.7368 36.0862 38.0834 35.3031C37.5299 34.6162 36.7757 34.7398 36.4133 35.6007C36.1357 36.2602 34.8368 37.4554 34.5291 37.3523C34.4266 37.318 34.083 37.0775 33.7755 36.8073C33.4474 36.5303 32.5475 35.999 31.7731 35.6143C30.1501 34.7991 29.3274 34.0847 29.5047 33.6634C29.5741 33.4985 30.1361 33.1642 30.7776 32.9192C31.9835 32.4453 32.381 32.5575 32.7676 33.4185C33.039 34.0527 34.0109 34.3573 34.7447 34.0597C35.2245 33.8651 35.3427 33.6956 35.5126 32.9583C35.703 32.2279 35.8365 32.0218 36.591 31.5639C37.6663 30.8999 37.849 30.1878 37.062 29.6108C36.7801 29.391 36.5521 29.0429 36.5753 28.8208C36.5781 28.5918 36.322 28.0881 35.9863 27.6622C35.2868 26.8218 35.3073 26.8287 36.0696 26.1853C36.8602 25.5305 36.8606 25.029 36.0488 23.3987C35.6801 22.6064 35.4063 21.8668 35.4602 21.7386C35.6607 21.2624 35.2458 20.4129 34.5025 19.7877C33.6131 19.0092 33.4469 18.3474 33.5614 16.2958C33.6785 14.3496 33.452 12.1629 33.0574 11.6545C32.8934 11.4324 32.5704 11.1988 32.3447 11.1233C31.8524 10.9584 30.8013 10.2302 30.2093 9.63487C29.8094 9.25017 29.6043 9.18147 28.6963 9.16999C27.4497 9.12873 24.3161 8.12113 23.7907 7.58989C23.5908 7.39755 23.3628 7.0495 23.304 6.79991C23.0559 5.94354 21.4605 5.78549 20.6802 6.52734C19.8638 7.29895 19.617 8.05226 19.7211 9.362C19.7819 10.2184 19.6865 10.8343 19.3319 11.6769C18.9849 12.5012 18.905 12.9134 19.0741 13.179C19.6147 14.0079 19.4172 17.0349 18.7233 18.6835C18.2993 19.691 17.1367 20.4511 16.3699 20.2152C16.1238 20.1328 15.3748 20.1328 14.6847 20.2152C13.7715 20.3273 13.3481 20.4991 13.0271 20.8723C12.7576 21.1791 12.2828 21.4172 11.816 21.4698C11.3696 21.5294 10.7409 21.7995 10.4021 22.1041C9.96318 22.4796 9.68864 22.5757 9.47331 22.42C6.37133 20.3362 6.04819 20.2698 5.37506 21.591C5.05647 22.2367 4.99203 22.6122 5.17873 23.2808C5.51633 24.4806 6.66185 25.7629 7.63636 26.0057C8.30825 26.1889 8.42872 26.2919 8.60771 26.9788C8.72791 27.4162 8.71717 27.9978 8.60152 28.2725C8.4319 28.6755 8.58032 29.1014 9.31293 30.3081C9.84576 31.1554 10.691 32.6506 11.2032 33.6581C12.33 35.8746 13.6037 37.2416 15.9059 38.7232L17.6543 39.8521L18.8215 39.6369C19.4783 39.5224 20.3556 39.44 20.8122 39.4675C21.2559 39.4698 21.7997 39.4012 21.9845 39.2958C22.1821 39.2157 22.5233 39.1837 22.7489 39.2592C22.9746 39.3348 23.8058 39.1952 24.5857 38.9548C25.5761 38.6594 26.3354 38.5793 26.9201 38.6915C27.3946 38.7877 28.1999 38.932 28.6949 39.0351C29.2386 39.1335 29.844 39.0855 30.2186 38.9183C30.8549 38.6299 32.6864 38.6162 33.4865 38.8841C33.9378 39.0352 34.6832 40.2672 34.5444 40.5969C34.4982 40.7068 33.9747 40.9495 33.4128 41.1166C31.8888 41.5676 30.0351 43.7474 30.6168 44.4229C31.0601 44.9266 31.6219 44.9267 32.892 44.4115C34.0133 43.9719 34.2852 43.9376 34.7595 44.2009C35.1723 44.4437 35.5801 44.4757 36.301 44.3201C36.8397 44.2079 37.3118 44.0316 37.3504 43.94C37.3966 43.8301 37.9073 43.5622 38.5077 43.3035C40.132 42.6143 43.6691 39.4936 44.178 38.2846C44.2551 38.1014 44.2145 37.5862 44.0815 37.1237C43.9485 36.6612 43.8847 36.2009 43.9156 36.1277C43.9541 36.0361 44.3363 36.0178 44.7493 36.0933C45.1699 36.1506 45.665 36.0865 45.8729 35.9262C46.2964 35.5874 46.9132 34.1219 46.978 33.245Z" fill="#2AD95C"/>
<defs>
<filter id="filter0_f_5341_8298" x="-0.00195312" y="57.0001" width="53.0918" height="19" filterUnits="userSpaceOnUse" color-interpolation-filters="sRGB">
<feFlood flood-opacity="0" result="BackgroundImageFix"/>
<feBlend mode="normal" in="SourceGraphic" in2="BackgroundImageFix" result="shape"/>
<feGaussianBlur stdDeviation="3.5" result="effect1_foregroundBlur_5341_8298"/>
</filter>
</defs>
</svg>
