<svg width="55" height="72" viewBox="0 0 55 72" fill="none" xmlns="http://www.w3.org/2000/svg">
<g filter="url(#filter0_f_5717_676)">
<ellipse cx="26.5435" cy="62.6895" rx="19.5455" ry="2.31061" fill="url(#paint0_linear_5717_676)"/>
</g>
<path d="M28.6735 62.4296C27.8845 63.6401 26.1116 63.6401 25.3226 62.4296L18.6213 52.1489C17.7541 50.8186 18.7087 49.0568 20.2968 49.0568H33.6993C35.2874 49.0568 36.242 50.8186 35.3748 52.149L28.6735 62.4296Z" fill="url(#paint1_linear_5717_676)"/>
<path d="M26.998 50.4394C39.7472 50.4394 49.998 39.9457 49.998 27.106C49.998 14.2663 39.7472 3.77271 26.998 3.77271C14.2489 3.77271 3.99805 14.2663 3.99805 27.106C3.99805 39.9457 14.2489 50.4394 26.998 50.4394Z" fill="white" stroke="url(#paint2_linear_5717_676)" stroke-width="6"/>
<path d="M46.978 31.9537C47.0971 30.7157 46.3458 30.4638 44.5754 31.1135C43.9903 31.3187 43.1411 31.5388 42.687 31.6107C42.0303 31.7165 41.7454 31.8794 41.4039 32.3725C41.1522 32.7196 40.5899 33.3375 40.1766 33.7311C39.314 34.5459 38.7368 34.5797 38.0834 33.8559C37.5299 33.221 36.7757 33.3353 36.4133 34.131C36.1357 34.7405 34.8368 35.8451 34.5291 35.7499C34.4266 35.7181 34.083 35.4959 33.7755 35.2462C33.4474 34.9901 32.5475 34.4991 31.7731 34.1435C30.1501 33.3901 29.3274 32.7298 29.5047 32.3404C29.5741 32.188 30.1361 31.8791 30.7776 31.6526C31.9835 31.2146 32.381 31.3183 32.7676 32.114C33.039 32.7003 34.0109 32.9818 34.7447 32.7067C35.2245 32.5268 35.3427 32.3702 35.5126 31.6888C35.703 31.0137 35.8365 30.8232 36.591 30.4C37.6663 29.7863 37.849 29.1282 37.062 28.5948C36.7801 28.3917 36.5521 28.07 36.5753 27.8647C36.5781 27.6531 36.322 27.1875 35.9863 26.7938C35.2868 26.0171 35.3073 26.0235 36.0696 25.4289C36.8602 24.8236 36.8606 24.3602 36.0488 22.8533C35.6801 22.1211 35.4063 21.4375 35.4602 21.319C35.6607 20.8788 35.2458 20.0937 34.5025 19.5159C33.6131 18.7964 33.4469 18.1848 33.5614 16.2886C33.6785 14.4898 33.452 12.4687 33.0574 11.9989C32.8934 11.7936 32.5704 11.5777 32.3447 11.5079C31.8524 11.3555 30.8013 10.6825 30.2093 10.1322C29.8094 9.77668 29.6043 9.71318 28.6963 9.70257C27.4497 9.66443 24.3161 8.73317 23.7907 8.24217C23.5908 8.0644 23.3628 7.74272 23.304 7.51204C23.0559 6.72055 21.4605 6.57447 20.6802 7.26011C19.8638 7.97327 19.617 8.66952 19.7211 9.88003C19.7819 10.6715 19.6865 11.2408 19.3319 12.0196C18.9849 12.7814 18.905 13.1623 19.0741 13.4078C19.6147 14.1739 19.4172 16.9717 18.7233 18.4953C18.2993 19.4265 17.1367 20.1291 16.3699 19.9111C16.1238 19.8349 15.3748 19.8348 14.6847 19.911C13.7715 20.0147 13.3481 20.1734 13.0271 20.5183C12.7576 20.8019 12.2828 21.022 11.816 21.0706C11.3696 21.1256 10.7409 21.3753 10.4021 21.6568C9.96318 22.0038 9.68864 22.0927 9.47331 21.9488C6.37133 20.0229 6.04819 19.9615 5.37506 21.1826C5.05647 21.7793 4.99203 22.1264 5.17873 22.7444C5.51633 23.8533 6.66185 25.0385 7.63636 25.2628C8.30825 25.4321 8.42872 25.5274 8.60771 26.1623C8.72791 26.5665 8.71717 27.104 8.60152 27.358C8.4319 27.7304 8.58032 28.124 9.31293 29.2393C9.84576 30.0224 10.691 31.4043 11.2032 32.3355C12.33 34.3841 13.6037 35.6476 15.9059 37.0169L17.6543 38.0603L18.8215 37.8614C19.4783 37.7556 20.3556 37.6794 20.8122 37.7048C21.2559 37.707 21.7997 37.6435 21.9845 37.5462C22.1821 37.4721 22.5233 37.4425 22.7489 37.5123C22.9746 37.5822 23.8058 37.4531 24.5857 37.2309C25.5761 36.958 26.3354 36.8839 26.9201 36.9876C27.3946 37.0765 28.1999 37.2099 28.6949 37.3051C29.2386 37.3961 29.844 37.3517 30.2186 37.1972C30.8549 36.9306 32.6864 36.918 33.4865 37.1656C33.9378 37.3053 34.6832 38.4439 34.5444 38.7486C34.4982 38.8502 33.9747 39.0745 33.4128 39.229C31.8888 39.6458 30.0351 41.6605 30.6168 42.2848C31.0601 42.7504 31.6219 42.7504 32.892 42.2743C34.0133 41.868 34.2852 41.8363 34.7595 42.0796C35.1723 42.304 35.5801 42.3336 36.301 42.1897C36.8397 42.0861 37.3118 41.9231 37.3504 41.8385C37.3966 41.7369 37.9073 41.4893 38.5077 41.2502C40.132 40.6133 43.6691 37.7289 44.178 36.6115C44.2551 36.4422 44.2145 35.9661 44.0815 35.5386C43.9485 35.1111 43.8847 34.6857 43.9156 34.618C43.9541 34.5333 44.3363 34.5164 44.7493 34.5863C45.1699 34.6392 45.665 34.5799 45.8729 34.4318C46.2964 34.1186 46.9132 32.7642 46.978 31.9537Z" fill="url(#paint3_linear_5717_676)"/>
<defs>
<filter id="filter0_f_5717_676" x="-0.00195312" y="53.3788" width="53.0908" height="18.6212" filterUnits="userSpaceOnUse" color-interpolation-filters="sRGB">
<feFlood flood-opacity="0" result="BackgroundImageFix"/>
<feBlend mode="normal" in="SourceGraphic" in2="BackgroundImageFix" result="shape"/>
<feGaussianBlur stdDeviation="3.5" result="effect1_foregroundBlur_5717_676"/>
</filter>
<linearGradient id="paint0_linear_5717_676" x1="7.00195" y1="64.9999" x2="201.502" y2="62.9999" gradientUnits="userSpaceOnUse">
<stop stop-color="#00A896"/>
<stop offset="1" stop-color="#02C39A"/>
</linearGradient>
<linearGradient id="paint1_linear_5717_676" x1="26.998" y1="65" x2="194.502" y2="61.9999" gradientUnits="userSpaceOnUse">
<stop stop-color="#00A896"/>
<stop offset="1" stop-color="#02C39A"/>
</linearGradient>
<linearGradient id="paint2_linear_5717_676" x1="1.00195" y1="26.9998" x2="196.502" y2="26.9999" gradientUnits="userSpaceOnUse">
<stop stop-color="#00A896"/>
<stop offset="1" stop-color="#02C39A"/>
</linearGradient>
<linearGradient id="paint3_linear_5717_676" x1="0.00195346" y1="18.4999" x2="188.232" y2="44.0703" gradientUnits="userSpaceOnUse">
<stop stop-color="#00A896"/>
<stop offset="1" stop-color="#02C39A"/>
</linearGradient>
</defs>
</svg>
